<svg width="34" height="38" viewBox="0 0 34 38" fill="none" xmlns="http://www.w3.org/2000/svg">
<g clip-path="url(#clip0_15082_512)">
<path d="M6.07 20.72V18.46C12.7536 17.5423 19.4937 17.0979 26.24 17.13C26.24 17.73 26.24 18.34 26.18 18.95C28.0976 18.099 30.1128 17.4877 32.18 17.13C30.8625 13.722 28.4618 10.8412 25.3471 8.93087C22.2325 7.02052 18.5764 6.1864 14.9414 6.55683C11.3064 6.92727 7.89379 8.48172 5.22852 10.9811C2.56325 13.4804 0.792971 16.7863 0.190002 20.39L6.07 20.72Z" fill="#FDC305"/>
<path d="M27.24 24.23C26.08 25.51 25.85 25.43 25.85 27.68C25.85 28.59 25.85 32.58 25.85 36.86C28.1425 35.346 30.0245 33.2879 31.328 30.8694C32.6315 28.4509 33.3158 25.7474 33.32 23C33.3068 21.9591 33.1997 20.9216 33 19.9C30.9282 21.1295 28.9968 22.5814 27.24 24.23Z" fill="#FDC305"/>
<path d="M6.36 25.72C6.36 25.72 2.57 24.28 1.17 23.89C0.787067 23.7693 0.396097 23.6757 0 23.61C0.108395 26.496 0.965588 29.3041 2.48739 31.7586C4.00919 34.2131 6.14326 36.2296 8.68 37.61L6.36 25.72Z" fill="#FDC305"/>
<path d="M26.29 17.12C26.3307 11.5986 25.862 6.08528 24.89 0.65C24.89 0.65 24.75 -0.64 24 0.41C23.4109 1.65814 23.0067 2.98539 22.8 4.35C18.5418 4.07577 14.2675 4.18957 10.03 4.69C9.24 2 7.85 0.75 7.18 1C6.51 1.25 6.46 4.31 6.46 4.31L6.13 18.41C12.8113 17.506 19.548 17.0749 26.29 17.12Z" fill="#F06351"/>
<path d="M12.41 14C12.41 13.91 13.41 14.68 13.82 14.92C14.23 15.16 14.43 15.34 14.43 15.51C14.43 15.68 14.16 15.85 13.8 15.85C13.44 15.85 12.89 15.73 12.8 15.58H13.74H14.03C13.4207 15.1294 12.8757 14.5978 12.41 14Z" fill="black"/>
<path d="M19.89 14.11L18.8 15.44C18.8 15.5 18.63 15.79 18.98 15.74C19.3942 15.6783 19.8023 15.5812 20.2 15.45C20.31 15.45 20.27 15.26 20.09 15.28C19.91 15.3 19.4 15.33 19.09 15.39L19.93 14.13C19.93 14.13 20 14 19.89 14.11Z" fill="black"/>
<path d="M16.75 20.2C17.2135 19.9958 17.5967 19.6443 17.84 19.2C18.12 18.55 17.84 18.29 17.4 18.2C16.7979 18.0902 16.1765 18.2116 15.66 18.54C15.27 18.9 15.32 19.26 15.61 19.54C15.9613 19.8062 16.3442 20.0279 16.75 20.2Z" fill="black"/>
<path d="M16.35 21.45C16.2379 21.6785 16.0816 21.8825 15.89 22.05C15.6052 22.2791 15.2551 22.4122 14.89 22.43C14.3638 22.472 13.8406 22.3189 13.42 22C13.2222 21.8808 13.0436 21.7324 12.89 21.56C12.7895 21.4491 12.6669 21.3605 12.53 21.3C12.53 21.3 13.28 25.4 15.1 26.05C16.92 26.7 17.24 25.3 17.3 24.92C17.3601 23.7851 17.0742 22.6588 16.48 21.69C16.46 21.38 16.45 21.58 16.35 21.45Z" fill="#F06351"/>
<path d="M14.372 22.822C13.9073 22.7568 13.4609 22.5971 13.0602 22.3529C12.6595 22.1087 12.313 21.7851 12.042 21.402C12.0287 21.389 12.0181 21.3734 12.0109 21.3563C12.0037 21.3391 12 21.3206 12 21.302C12 21.2834 12.0037 21.265 12.0109 21.2478C12.0181 21.2306 12.0287 21.2151 12.042 21.202C12.0551 21.1887 12.0706 21.1781 12.0878 21.1709C12.105 21.1637 12.1234 21.16 12.142 21.16C12.1606 21.16 12.1791 21.1637 12.1963 21.1709C12.2134 21.1781 12.229 21.1887 12.242 21.202C12.7468 21.8962 13.505 22.3634 14.352 22.502C14.6837 22.4771 15.0046 22.3733 15.2881 22.1994C15.5716 22.0255 15.8095 21.7864 15.982 21.502L16.122 21.312L16.222 21.522C16.222 21.522 16.592 22.282 17.222 22.322C17.852 22.362 18.272 21.912 18.832 21.042C18.8451 21.0287 18.8606 21.0181 18.8778 21.0109C18.895 21.0037 18.9134 21 18.932 21C18.9506 21 18.9691 21.0037 18.9863 21.0109C19.0034 21.0181 19.019 21.0287 19.032 21.042C19.0643 21.0627 19.0875 21.0949 19.0968 21.1321C19.1061 21.1693 19.1008 21.2086 19.082 21.242C18.442 22.242 17.812 22.682 17.202 22.642C16.97 22.6083 16.7487 22.5224 16.5547 22.3907C16.3607 22.2591 16.1991 22.0852 16.082 21.882C15.8853 22.1565 15.6296 22.3834 15.3337 22.5461C15.0378 22.7088 14.7092 22.803 14.372 22.822Z" fill="black"/>
<path d="M26.24 18.92C24.4445 20.5437 22.7512 22.277 21.17 24.11C19.5986 25.9361 17.8238 27.5768 15.88 29C15.66 28.47 14.26 27.49 14.26 27.49C14.26 27.49 11.13 25.35 9.08 23.67C7.97414 22.7373 6.9287 21.7353 5.95 20.67L3.95 20.56C6.84017 24.7655 11.0702 27.8676 15.95 29.36C16.81 29.22 19.22 27.5 21.02 26.1C23.1389 24.2819 25.124 22.3134 26.96 20.21C27.4625 19.621 27.8493 18.9425 28.1 18.21C27 18.6 26.24 18.92 26.24 18.92Z" fill="#F06351"/>
</g>
<defs>
<clipPath id="clip0_15082_512">
<rect width="33.32" height="37.61" fill="white"/>
</clipPath>
</defs>
</svg>
